<svg xmlns="http://www.w3.org/2000/svg" version="1.1" xmlns:xlink="http://www.w3.org/1999/xlink" xmlns:svgjs="http://svgjs.dev/svgjs" width="1000" height="1000" viewBox="0 0 1000 1000"><rect width="1000" height="1000" fill="#ffffff"></rect><g transform="matrix(0.7,0,0,0.7,149.5757721385056,351.27696362028104)"><svg viewBox="0 0 396 168" data-background-color="#ffffff" preserveAspectRatio="xMidYMid meet" height="424" width="1000" xmlns="http://www.w3.org/2000/svg" xmlns:xlink="http://www.w3.org/1999/xlink"><g id="tight-bounds" transform="matrix(1,0,0,1,0.23999182015643328,0.18285850054039088)"><svg viewBox="0 0 395.52 167.63429071848662" height="167.63429071848662" width="395.52"><g><svg viewBox="0 0 395.52 167.63429071848662" height="167.63429071848662" width="395.52"><g transform="matrix(1,0,0,1,0,116.97534824678557)"><svg viewBox="0 0 395.52 50.65894247170104" height="50.65894247170104" width="395.52"><g id="textblocktransform"><svg viewBox="0 0 395.52 50.65894247170104" height="50.65894247170104" width="395.52" id="textblock"><g><svg viewBox="0 0 395.52 50.65894247170104" height="50.65894247170104" width="395.52"><g transform="matrix(1,0,0,1,0,0)"><svg width="395.52" viewBox="2.700000047683716 -40.29999923706055 322.3299865722656 41.29999923706055" height="50.65894247170104" data-palette-color="#883d1a"><g class="wordmark-text-0" data-fill-palette-color="primary" id="text-0"><path d="M27.7-21.15Q31.55-20.1 33.83-17.48 36.1-14.85 36.1-11.45L36.1-11.45Q36.1-8.3 33.63-5.53 31.15-2.75 27.43-1.1 23.7 0.55 20.35 0.55L20.35 0.55Q17.85 0.55 15.45 0.3L15.45 0.3Q11.45 0.05 9.25 0.05L9.25 0.05 3.15 0.05 3.15-1.25 7.85-4.95 7.85-35.8 2.7-37.55 3.55-39.3 9.2-39.3Q13.75-39.3 18.15-39.6L18.15-39.6Q21.55-39.8 23.15-39.8L23.15-39.8Q26.4-39.8 28.9-38.5 31.4-37.2 32.75-34.98 34.1-32.75 34.1-30L34.1-30Q34.1-27.5 32.33-25.2 30.55-22.9 27.75-21.25L27.75-21.25 27.7-21.15ZM27.9-27.6Q27.9-31.6 25.73-34.18 23.55-36.75 19.25-36.75L19.25-36.75Q16-36.75 13.45-34.75L13.45-34.75 13.45-21.5 20.95-21.5Q24.2-21.5 26.03-23.1 27.85-24.7 27.85-27.6L27.85-27.6 27.9-27.6ZM21.7-2.85Q25.4-2.85 27.63-4.73 29.85-6.6 29.85-9.7L29.85-9.7Q29.85-13.7 27.5-16.15 25.15-18.6 20.5-18.75L20.5-18.75Q20.15-18.7 19.55-18.7L19.55-18.7 13.45-18.7 13.45-4.2Q16.85-2.85 21.75-2.85L21.75-2.85 21.7-2.85ZM74.75 0.9L72.25 0 42.55 0 42.55-1.3 47.25-5 47.25-35.75 42.1-37.55 42.95-39.3 71.75-39.3 74.25-40.2 74.25-28.95 73-28.6 67.1-37.35 52.9-37.35 52.9-21.05 61.15-21.05 64.8-27.6 66.1-27.6 66.1-12.3 64.35-11.4 61.25-19.1 52.9-19.1 52.9-1.95 66.9-1.95 73.5-11.75 74.75-11.35 74.75 0.9ZM115.4 0.9L112.9 0 83.2 0 83.2-1.3 87.9-5 87.9-35.75 82.75-37.55 83.6-39.3 112.4-39.3 114.9-40.2 114.9-28.95 113.65-28.6 107.75-37.35 93.55-37.35 93.55-21.05 101.8-21.05 105.45-27.6 106.75-27.6 106.75-12.3 105-11.4 101.9-19.1 93.55-19.1 93.55-1.95 107.55-1.95 114.15-11.75 115.4-11.35 115.4 0.9ZM160.64-1.6L159.79 0.15 150.79 0.15 139.49-17.7 137.14-19.45 137.79-20.75 140.69-20.75Q144.24-20.75 146.29-22.48 148.34-24.2 148.34-27.25L148.34-27.25Q148.34-31.3 146.09-34 143.84-36.7 139.49-36.7L139.49-36.7Q136.59-36.7 134.19-35L134.19-35 134.19-3.5 139.39-1.65 138.54 0.1 123.84 0.1 123.84-1.2 128.54-4.85 128.54-35.7 123.39-37.5 124.24-39.25 129.54-39.25Q134.09-39.25 138.59-39.55L138.59-39.55Q141.79-39.75 143.39-39.75L143.39-39.75Q146.64-39.75 149.19-38.4 151.74-37.05 153.14-34.77 154.54-32.5 154.54-29.75L154.54-29.75Q154.54-27.25 152.94-24.95 151.34-22.65 148.82-20.98 146.29-19.3 143.49-18.45L143.49-18.45 146.64-17.35 154.64-4.7 160.64-1.6Z" fill="#883d1a" data-fill-palette-color="primary"></path><path d="M188.34-3.55L193.54-1.7 192.69 0.05 177.99 0.05 177.99-1.25 182.69-4.9 182.69-35.7 177.54-37.55 178.39-39.3 193.09-39.3 193.09-38 188.34-34.35 188.34-3.55ZM216.74-1.7L215.89 0.05 207.14 0.05 191.39-19.65 206.89-33.15 201.14-37.5 201.99-39.25 215.14-39.25 215.14-37.95 196.79-21.95 210.84-4.6 216.74-1.7ZM236.09-1.65L235.23 0.1 220.54 0.1 220.54-1.2 225.23-4.85 225.23-35.65 220.09-37.5 220.94-39.25 235.64-39.25 235.64-37.95 230.89-34.3 230.89-3.6 236.09-1.65ZM280.03-38L275.28-34.35 275.28 0 272.88 0 249.03-30.7 249.03-4.4 253.93-1.75 253.03 0 241.93 0 241.93-1.3 246.63-4.95 246.63-34.8 241.48-37.55 242.33-39.3 249.63-39.3 272.88-9.35 272.88-34.9 268.03-37.55 268.93-39.3 280.03-39.3 280.03-38ZM320.28-15.35L320.28-7.75 321.63-5.75 312.43-0.1Q310.38 0.6 308.48 0.8 306.58 1 304.38 1L304.38 1Q298.93 1 294.73-1.55 290.53-4.1 288.21-8.58 285.88-13.05 285.88-18.75L285.88-18.75Q285.88-24.6 289.38-29.58 292.88-34.55 298.11-37.43 303.33-40.3 308.03-40.3L308.03-40.3Q310.83-40.3 314.56-39.55 318.28-38.8 319.98-37.95L319.98-37.95 319.98-28.7 318.68-28.7Q313.53-36.4 305.13-36.4L305.13-36.4Q301.43-36.4 298.43-34.43 295.43-32.45 293.71-28.98 291.98-25.5 291.98-21.15L291.98-21.15Q291.98-16.2 293.66-12.05 295.33-7.9 298.73-5.43 302.13-2.95 307.18-2.95L307.18-2.95Q307.43-2.95 308.73-2.93 310.03-2.9 311.56-3.25 313.08-3.6 314.63-4.35L314.63-4.35 314.63-16.35 306.98-18.55 307.83-20.3 325.03-20.3 325.03-19 320.28-15.35Z" fill="#4d331f" data-fill-palette-color="secondary"></path></g></svg></g></svg></g></svg></g></svg></g><g transform="matrix(1,0,0,1,161.92615548911954,0)"><svg viewBox="0 0 71.6676890217609 105.01598774383628" height="105.01598774383628" width="71.6676890217609"><g><svg xmlns="http://www.w3.org/2000/svg" xmlns:xlink="http://www.w3.org/1999/xlink" version="1.1" x="0" y="0" viewBox="17.789884567260742 3.7740068435668945 63.53498840332031 93.09899139404297" enable-background="new 0 0 100 100" xml:space="preserve" height="105.01598774383628" width="71.6676890217609" class="icon-icon-0" data-fill-palette-color="accent" id="icon-0"><g fill="#4d331f" data-fill-palette-color="accent"><path fill="#4d331f" d="M45.874 62.2c-1.863 0-2.335 0.596-2.335 2.54 0 2.21-0.511 5.029-1.653 6.98-0.124 0.215-0.259 0.412-0.398 0.596 0.284-1.094 0.515-2.614 0.491-4.644v-0.065c-0.008 0-0.122 4.998-3.62 6.801 0 0-1.01 0.523-2.146 0.683 1.087-0.797 1.752-1.757 2.16-2.83 0.328-0.808 0.804-2.487 0.799-5.413-0.004-1.93 1.464-4.576 1.464-4.576s-1.103 1.224-1.677 2.727c0.048-2.008 0.444-3.893 2.533-5.223 2.118-1.233 3.941-1.312 5.32-1.096 0.704 0.111 2.416 0.778 2.874 0.791 0.456-0.013 2.166-0.68 2.873-0.791 1.377-0.218 3.201-0.139 5.319 1.096 2.087 1.33 2.483 3.215 2.531 5.223-0.572-1.503-1.677-2.727-1.677-2.727s1.47 2.646 1.466 4.576c-0.005 2.926 0.471 4.605 0.797 5.413 0.405 1.073 1.073 2.033 2.159 2.83-1.137-0.159-2.145-0.683-2.145-0.683-3.498-1.803-3.611-6.801-3.621-6.801l-0.007 0.065c-0.021 2.026 0.209 3.548 0.495 4.644-0.145-0.184-0.275-0.381-0.398-0.596-1.146-1.951-1.654-4.771-1.654-6.98 0-1.944-0.469-2.54-2.338-2.54H45.874L45.874 62.2zM56.219 50.403c1.766 0.292 2.063 0.812 2.063 0.812l-5.31 0.104c0.079-0.09 0.248-0.344 0.616-0.569-1.868 0.13-2.581-1.324-2.581-1.324s0.957 0.574 2.374 0.106c1.856-0.615 1.058-0.383 3.118-1.093 2.303-0.793 3.878 2.51 3.878 2.51s-0.546-0.74-1.471-1.036c-1.438-0.466-1.929-0.087-3.56 0.422C55.609 50.336 55.896 50.358 56.219 50.403L56.219 50.403zM48.405 49.425c0 0-0.712 1.454-2.58 1.324 0.369 0.228 0.536 0.479 0.615 0.569l-5.309-0.104c0 0 0.298-0.521 2.063-0.812 0.322-0.047 0.609-0.067 0.87-0.069-1.629-0.509-2.118-0.888-3.557-0.422-0.925 0.296-1.472 1.036-1.472 1.036s1.574-3.303 3.88-2.51c2.06 0.71 1.259 0.478 3.117 1.093C47.448 49.999 48.405 49.425 48.405 49.425L48.405 49.425zM58.032 73.363l-3.073 2.242H44.296l-3.014-2.197c0.369-0.344 0.704-0.743 0.994-1.205l2.529 1.845h9.644l2.603-1.894C57.338 72.617 57.669 73.016 58.032 73.363L58.032 73.363zM76.283 67.643c2.75-1.701 2.771-5.459 0.045-6.937l-0.069 0.052c0.019 0.09 0.032 0.189 0.046 0.299 0.178 1.409-0.164 2.482-0.961 3.559C75.402 65.719 75.705 66.703 76.283 67.643L76.283 67.643zM77.334 89.125c0 1.779-0.341 3.323-0.93 4.667 7.716-7.548 1.309-14.495-0.252-16.608-0.146-0.197-0.266-0.386-0.362-0.564 0.112 1.913 1.612 3.626 1.612 3.626s-3.851-3.058-2.289-5.192c0.312-0.426 1.027-1.412 1.675-2.304 0.706-1.103 1.319-2.521 0.778-4.899-0.273 0.239-0.582 0.461-0.926 0.656 0.021 0.611-0.244 1.865-2.104 3.655-2.396 2.302-3.531 3.776-3.926 4.938-1.246 3.672 3.504 5.879 3.812 10.213 0.172 2.401-1.308 5.369-2.363 7.119 0.078-0.031 0.153-0.061 0.229-0.099 6.688-5.369 2.228-11.653 2.228-11.653S77.334 85.648 77.334 89.125L77.334 89.125zM73.383 58.245c-0.273-0.021-0.66-0.052-1.111-0.115-0.359 0.586-0.897 1.92 0.155 3.618 0.505 0.82 1.587 1.609 2.197 2.012l0.069-0.107c0.531-0.901 0.646-1.795 0.455-2.789C74.262 60.33 73.592 59.271 73.383 58.245L73.383 58.245zM68.712 52.404c-0.245 0.078-0.588 0.162-1.019 0.229-0.307 0.043-0.607 0.072-0.898 0.088 0.012 0.133 0.037 0.293 0.074 0.469 0.64 2.901 3.732 3.92 6.652 4.041 0.369-0.75-0.584-2.178-1.32-2.648C71.031 54.721 69.497 53.327 68.712 52.404L68.712 52.404zM58.493 42.898c0.178 0.986 0.381 1.957 0.776 3.021 1.295 3.46 4.01 6.32 8.246 5.696 0.268-0.039 0.489-0.09 0.666-0.137-0.189-0.578-0.529-1.629-0.728-2.488-0.28-1.22-0.791-2.422-1.41-3.537-0.886-1.388-2.032-2.095-3.663-2.556h-2.775c0.129 0.383 0.275 0.773 0.447 1.174 1.139 2.647 2.902 4.855 5.262 5.859-2.69-0.387-4.641-2.521-5.795-5.213-0.271-0.633-0.471-1.232-0.635-1.82L58.493 42.898 58.493 42.898zM74.243 64.893c-1.142 1.82-0.86 3.732 0.192 5.582 0.063 0.109 0.123 0.207 0.176 0.289 0.421-0.535 0.74-1.054 0.893-1.561 0.059-0.195 0.105-0.428 0.085-0.637C74.788 67.432 74.354 66.232 74.243 64.893L74.243 64.893zM67.586 46.053c0.777 1.767 1.139 3.613 1.764 5.421 0.422 0.611 1.808 2.027 2.729 2.084l0.081-0.059c0.688-0.934-0.106-3.631-0.574-4.438C70.541 47.253 69.012 46.214 67.586 46.053L67.586 46.053zM73.148 53.975c1.117 0.938 2.095 2.875 1.289 3.928 0.127 0.918 0.605 1.453 1.209 1.988 2.129-1.721 0.297-5.69-2.203-6.72-0.021 0.108-0.049 0.218-0.08 0.315C73.316 53.643 73.247 53.814 73.148 53.975L73.148 53.975zM22.931 67.613c0.578-0.937 0.878-1.924 0.938-3.026-0.799-1.075-1.14-2.149-0.962-3.558 0.012-0.107 0.027-0.209 0.047-0.301l-0.069-0.051C20.159 62.156 20.177 65.91 22.931 67.613L22.931 67.613zM21.877 89.096c0-3.475 2.819-6.447 2.819-6.447s-4.463 6.287 2.225 11.66c0.077 0.031 0.154 0.065 0.229 0.094-1.052-1.752-2.533-4.719-2.361-7.119 0.31-4.332 5.06-6.541 3.811-10.213-0.395-1.159-1.528-2.635-3.926-4.938-1.857-1.789-2.122-3.044-2.104-3.657-0.341-0.195-0.648-0.416-0.923-0.656-0.541 2.384 0.073 3.8 0.779 4.899 0.643 0.892 1.358 1.882 1.673 2.31 1.562 2.13-2.287 5.188-2.287 5.188s1.5-1.708 1.612-3.623c-0.097 0.178-0.219 0.366-0.365 0.562-1.561 2.115-7.964 9.063-0.25 16.609C22.219 92.421 21.877 90.876 21.877 89.096L21.877 89.096zM25.828 58.215c-0.207 1.028-0.878 2.09-1.764 2.618-0.193 0.996-0.078 1.892 0.454 2.789l0.067 0.11c0.613-0.404 1.694-1.193 2.201-2.01 1.052-1.701 0.515-3.037 0.155-3.621C26.489 58.166 26.103 58.199 25.828 58.215L25.828 58.215zM30.5 52.378c-0.785 0.919-2.318 2.313-3.488 2.179-0.737 0.469-1.694 1.896-1.321 2.646 2.919-0.12 6.013-1.143 6.651-4.044 0.04-0.175 0.062-0.331 0.077-0.468-0.294-0.015-0.594-0.043-0.901-0.088C31.09 52.538 30.744 52.451 30.5 52.378L30.5 52.378zM40.716 42.871h-0.408c-0.166 0.597-0.365 1.205-0.642 1.848-1.155 2.692-3.103 4.826-5.795 5.213 2.361-1.006 4.123-3.212 5.261-5.859 0.176-0.41 0.327-0.81 0.46-1.201h-2.758c-1.632 0.46-2.779 1.168-3.667 2.557-0.62 1.114-1.129 2.315-1.409 3.533-0.197 0.86-0.534 1.916-0.728 2.492 0.178 0.047 0.4 0.097 0.665 0.136 4.237 0.623 6.955-2.239 8.245-5.698C40.337 44.829 40.54 43.859 40.716 42.871L40.716 42.871zM24.968 64.865c-0.11 1.339-0.542 2.539-1.343 3.675-0.023 0.211 0.025 0.438 0.083 0.635 0.151 0.507 0.469 1.026 0.892 1.562 0.055-0.084 0.112-0.182 0.173-0.289C25.828 68.598 26.11 66.688 24.968 64.865L24.968 64.865zM31.624 46.024c-1.422 0.161-2.953 1.203-3.997 3.008-0.465 0.811-1.26 3.508-0.571 4.438l0.08 0.062c0.922-0.058 2.307-1.474 2.729-2.085C30.487 49.64 30.847 47.792 31.624 46.024L31.624 46.024zM26.062 53.943c-0.097-0.157-0.166-0.326-0.214-0.484-0.031-0.102-0.057-0.205-0.078-0.312-2.502 1.024-4.334 4.996-2.206 6.717 0.605-0.537 1.083-1.067 1.209-1.984C23.97 56.822 24.944 54.883 26.062 53.943L26.062 53.943zM63.672 55.346c0.014 3.184 0.122 13.817 0.122 13.817l-2.558 1.864c-0.121-0.555-0.192-1.143-0.229-1.76l1.222-0.893c0 0-0.102-9.837-0.114-13.025-1.578 0.647-2.894 1.537-3.817 2.582 0.895-2.08 3.188-3.791 6.192-4.695 0.002-0.03 0.002-0.062-0.005-0.098-0.021-0.147-0.047-0.298-0.072-0.455-3.729-0.944-6.105-4.773-6.924-8.597-0.116-0.529-0.189-0.901-0.248-1.227h-5.747v4.488c0 1.076-0.812 1.949-1.811 1.949-1 0-1.811-0.873-1.811-1.949V42.86h-5.987c-0.062 0.325-0.134 0.697-0.249 1.227-0.809 3.776-3.136 7.56-6.785 8.56-0.032 0.168-0.06 0.332-0.083 0.492-0.004 0.035-0.006 0.066-0.002 0.098 3.004 0.904 5.296 2.615 6.19 4.695-0.924-1.045-2.237-1.935-3.817-2.582-0.014 3.188-0.114 13.025-0.114 13.025l1.321 0.965c-0.039 0.615-0.114 1.201-0.24 1.752l-2.649-1.93c0 0 0.11-10.635 0.124-13.818v-0.162c-0.746-0.308-1.522-0.531-2.296-0.767l-0.131-0.042c-0.877 2.186-2.892 3.197-5.036 3.669 1.166 2.786-0.165 4.573-2.252 6.169 1.114 2.05 1.515 3.969-0.115 6.831-0.082 0.144-0.165 0.282-0.254 0.421 2.609 2.777 6.771 5.253 2.712 11.145-3 4.354-3.164 6.082-0.089 11.207l1.775 2.965c-2.404-0.955-4.002-1.358-5.924-2.987l0.3 3.079c-8.212-8.008-8.255-12.161-2.186-20.395 1.77-2.403-2.941-3.076-1.611-8.903l0.12-0.532c-1.59-2.299-1.221-5.537 1.354-7.173-1.799-2.757 0.944-6.806 3.338-7.788l0.302-0.124c0.047-1.274 0.487-2.624 0.986-3.491 1.182-2.045 2.998-3.374 4.878-3.584l0.698-0.079c0.894-1.384 1.888-2.143 2.891-2.59 0.674-1.404 1.544-2.7 2.576-3.845l-1.697 0.187c-5.298 0.053-8.231-3.299-9.492-6.548 0.483-0.163 0.982-0.343 1.495-0.539 1.711-0.659 3.346-1.454 4.376-2.065-2.622 0.623-5.129 0.887-7.434 0.967l-0.136-0.342c-0.884-2.302-1.533-4.519-1.708-6.796 0.596 0.127 1.221 0.23 1.864 0.312 0.852 0.104 1.704 0.146 2.468 0.157h0.209c-1.137-0.574-2.267-1.301-3.352-2.179-0.661-0.534-1.253-1.105-1.827-1.684l2.446-8.035c0.592 1.627 1.489 3.292 2.661 4.896 0.733 1.007 2.646 2.965 2.646 2.965s-1.812-2.938-2.309-4.567c-0.761-2.504-1.402-4.894-1.489-7.13l2.438-4.193c-0.197 2.699 0.243 5.848 1.45 8.987 1.771 4.621 4.499 7.999 7.579 9.594-0.902 3.501-0.657 7.876 1 12.189 0.252 0.665 0.534 1.306 0.836 1.927 2.604-2.054 5.854-3.322 9.39-3.453 0.113-0.252 0.363-0.425 0.653-0.425 0.292 0 0.543 0.175 0.655 0.427 3.521 0.143 6.752 1.415 9.346 3.461 0.305-0.622 0.584-1.271 0.842-1.937 1.654-4.313 1.9-8.688 1-12.189 3.078-1.595 5.808-4.973 7.582-9.594 1.203-3.14 1.645-6.288 1.444-8.987l2.439 4.193c-0.087 2.235-0.726 4.626-1.489 7.13-0.499 1.629-2.309 4.567-2.309 4.567s1.914-1.958 2.647-2.965c1.171-1.605 2.065-3.271 2.659-4.896l2.445 8.035c-0.573 0.578-1.166 1.151-1.826 1.684-1.083 0.878-2.217 1.604-3.352 2.179h0.209c0.764-0.012 1.612-0.054 2.467-0.157 0.645-0.082 1.27-0.186 1.865-0.312-0.177 2.277-0.824 4.494-1.711 6.796l-0.135 0.342c-2.304-0.08-4.812-0.344-7.436-0.967 1.031 0.612 2.666 1.407 4.377 2.065 0.512 0.196 1.014 0.376 1.496 0.539-1.26 3.249-4.195 6.601-9.492 6.548l-1.715-0.188c1.062 1.181 1.953 2.518 2.637 3.965 0.915 0.465 1.816 1.204 2.635 2.472l0.696 0.079c1.882 0.21 3.698 1.539 4.881 3.584 0.499 0.867 0.94 2.218 0.983 3.491l0.305 0.124c2.393 0.981 5.137 5.032 3.338 7.788 2.572 1.638 2.945 4.874 1.354 7.173l0.123 0.532c1.326 5.826-3.385 6.5-1.615 8.904 6.07 8.231 6.027 12.387-2.186 20.394l0.301-3.079c-1.922 1.629-3.52 2.032-5.924 2.988l1.774-2.965c3.075-5.125 2.912-6.854-0.089-11.209-4.061-5.891 0.099-8.365 2.713-11.144-0.087-0.139-0.174-0.278-0.253-0.421-1.63-2.861-1.229-4.783-0.116-6.831-2.089-1.596-3.419-3.381-2.251-6.169-2.146-0.469-4.158-1.48-5.036-3.667-0.775 0.274-1.553 0.499-2.298 0.81v0.16H63.672zM40.942 41.546c0 0.397 0.32 0.72 0.717 0.72 0.395 0 0.716-0.322 0.716-0.72 0-0.395-0.321-0.714-0.716-0.714C41.263 40.831 40.942 41.151 40.942 41.546L40.942 41.546zM44.945 41.5c0 0.395 0.319 0.714 0.716 0.714s0.717-0.32 0.717-0.714c0-0.397-0.322-0.719-0.717-0.719C45.265 40.781 44.945 41.101 44.945 41.5L44.945 41.5zM52.95 41.398c0 0.397 0.323 0.717 0.718 0.717s0.715-0.321 0.715-0.717c0-0.394-0.32-0.713-0.715-0.713S52.95 41.005 52.95 41.398L52.95 41.398zM56.953 41.351c0 0.394 0.322 0.713 0.718 0.713s0.714-0.32 0.714-0.713c0-0.397-0.318-0.719-0.714-0.719S56.953 40.955 56.953 41.351L56.953 41.351zM60.957 41.302c0 0.392 0.322 0.713 0.719 0.713 0.393 0 0.715-0.322 0.715-0.713 0-0.398-0.322-0.718-0.715-0.718C61.277 40.582 60.957 40.902 60.957 41.302L60.957 41.302zM48.954 35.387c0 0.396 0.319 0.715 0.716 0.715 0.395 0 0.716-0.321 0.716-0.715 0-0.395-0.321-0.715-0.716-0.715C49.273 34.672 48.954 34.991 48.954 35.387L48.954 35.387zM48.954 38.411c0 0.395 0.319 0.718 0.716 0.718 0.395 0 0.716-0.324 0.716-0.718 0-0.395-0.321-0.716-0.716-0.716C49.273 37.695 48.954 38.019 48.954 38.411L48.954 38.411zM48.954 41.438c0 0.397 0.319 0.717 0.716 0.717 0.395 0 0.716-0.32 0.716-0.717 0-0.394-0.321-0.714-0.716-0.714C49.273 40.724 48.954 41.045 48.954 41.438L48.954 41.438zM48.954 44.466c0 0.396 0.319 0.716 0.716 0.716 0.395 0 0.716-0.321 0.716-0.716s-0.321-0.716-0.716-0.716C49.273 43.75 48.954 44.071 48.954 44.466L48.954 44.466zM48.954 47.489c0 0.396 0.319 0.717 0.716 0.717 0.395 0 0.716-0.321 0.716-0.717s-0.321-0.715-0.716-0.715C49.273 46.774 48.954 47.095 48.954 47.489L48.954 47.489zM36.938 41.598c0 0.397 0.321 0.716 0.716 0.716s0.716-0.32 0.716-0.716c0-0.395-0.321-0.714-0.716-0.714S36.938 41.203 36.938 41.598L36.938 41.598zM45.228 63.602c0 0 0.973 0.285 1.886 0.285h5.125c0.912 0 1.885-0.285 1.885-0.285s-0.521 1.463-4.446 1.424C45.75 65.064 45.228 63.602 45.228 63.602L45.228 63.602z" data-fill-palette-color="accent"></path></g></svg></g></svg></g><g></g></svg></g><defs></defs></svg><rect width="395.52" height="167.63429071848662" fill="none" stroke="none" visibility="hidden"></rect></g></svg></g></svg>