<?xml version="1.0" standalone="no"?>
<!DOCTYPE svg PUBLIC "-//W3C//DTD SVG 20010904//EN"
 "http://www.w3.org/TR/2001/REC-SVG-20010904/DTD/svg10.dtd">
<svg version="1.0" xmlns="http://www.w3.org/2000/svg"
 width="512.000000pt" height="512.000000pt" viewBox="0 0 512.000000 512.000000"
 preserveAspectRatio="xMidYMid meet">

<g transform="translate(0.000000,512.000000) scale(0.100000,-0.100000)"
fill="#000000" stroke="none">
<path d="M2443 4945 c-153 -33 -287 -131 -364 -266 -24 -40 -39 -57 -49 -53
-43 15 -142 15 -212 0 -125 -28 -227 -99 -299 -210 -49 -74 -53 -124 -13 -155
52 -41 82 -28 138 59 90 138 224 188 378 140 34 -11 70 -20 79 -20 30 0 64 37
83 93 52 154 211 267 376 267 114 0 234 -56 302 -142 83 -103 94 -106 190 -55
56 29 70 32 147 32 74 0 94 -4 143 -28 95 -46 162 -140 174 -244 8 -71 22
-100 55 -113 40 -17 83 2 100 42 18 43 -2 154 -43 238 -38 79 -132 177 -206
214 -116 59 -255 69 -372 28 l-55 -19 -62 58 c-132 123 -314 172 -490 134z"/>
<path d="M1460 4071 c-44 -14 -84 -38 -111 -68 -65 -69 -76 -132 -64 -367 8
-162 15 -181 72 -192 27 -5 37 -1 61 22 l29 29 -5 187 -5 186 26 26 26 26 356
0 c412 0 387 6 398 -99 9 -80 34 -138 87 -195 122 -132 331 -137 454 -10 52
53 76 104 91 193 10 55 19 80 35 93 29 23 72 23 101 -1 l24 -19 5 -334 c5
-317 6 -335 27 -373 58 -108 172 -157 287 -123 55 16 138 99 154 154 8 29 12
139 12 358 0 303 1 317 20 336 29 29 84 27 117 -6 l26 -26 -5 -186 -5 -187 29
-29 c24 -23 34 -27 61 -22 58 11 64 29 72 202 9 184 4 247 -23 300 -44 86
-116 128 -217 128 -100 0 -164 -36 -208 -119 -21 -38 -22 -56 -27 -378 l-5
-339 -24 -19 c-33 -27 -77 -24 -106 7 l-24 26 -3 326 c-3 296 -5 330 -22 362
-48 90 -119 134 -216 134 -134 0 -218 -81 -239 -230 -15 -102 -63 -154 -148
-161 -95 -8 -165 63 -176 176 -8 93 -48 155 -127 197 -32 17 -65 19 -410 21
-206 1 -386 -2 -400 -6z"/>
</g>
</svg>
