<svg xmlns="http://www.w3.org/2000/svg" version="1.1" xmlns:xlink="http://www.w3.org/1999/xlink" xmlns:svgjs="http://svgjs.dev/svgjs" width="100%" height="100%" viewBox="0 0 1000 600"><rect width="1000" height="600" x="0" y="0" fill="#ffffff"/><g><rect width="333.3333333333333" height="333.3333333333333" rx="13.333333333333334" ry="13.333333333333334" y="188.56273432389895" fill="#b88746" transform="matrix(0.7514706515485384,0,0,0.7514706515485383,0,33.05553819537684)" x="166.3404998779297"/><path d="M365.4469207235099 349.54953951390956Q379.74984614972675 353.6545307463437 387.934011059674 363.3102962867861Q396.11817596962123 372.99187938214953 396.11817596962123 385.6166637385035L396.11817596962123 385.6166637385035Q396.11817596962123 397.3378336726235 386.72058597838844 407.6390380860901Q377.34881354207664 417.96606005447785 363.30406366506946 424.11063812566846Q349.25931378806223 430.2293986419381 336.6345294317083 430.2293986419381L336.6345294317083 430.2293986419381Q327.3402096601595 430.2293986419381 318.4073356575042 429.2999666647832L318.4073356575042 429.2999666647832Q303.5364240230259 428.3705346876283 295.35225911307873 428.3705346876283L295.35225911307873 428.3705346876283L271.75501391531293 428.3705346876283L271.75501391531293 422.61321994025224L289.233498596809 408.8524631673757L289.233498596809 295.8490252782938L269.8961499610032 289.52372432265634L273.6138778696227 282.08826850541726L295.1715362286319 282.08826850541726Q312.0820347018667 282.08826850541726 328.4503645217611 280.9781136438156L328.4503645217611 280.9781136438156Q341.100966433036 280.22940455110745 347.0390040648589 280.22940455110745L347.0390040648589 280.22940455110745Q359.483065536766 280.22940455110745 368.98392574768263 285.0572873213287Q378.45896840367834 289.88517009155 383.5708442780302 298.172605221181Q388.6827201523821 306.4342227958912 388.6827201523821 316.6579745445949L388.6827201523821 316.6579745445949Q388.6827201523821 325.95229431614376 382.25414897706077 334.42045233022174Q375.8513953566604 342.8627927893786 365.4469207235099 349.18809374501603L365.4469207235099 349.18809374501603L365.4469207235099 349.54953951390956ZM363.5880567692001 325.95229431614376Q363.5880567692001 311.2621055661124 355.7653376281464 301.9677857945635Q347.96843604201376 292.6734660230146 332.52953819927427 292.6734660230146L332.52953819927427 292.6734660230146Q321.3763544734156 292.6734660230146 312.46929802568127 298.99876697865204L312.46929802568127 298.99876697865204L312.46929802568127 348.25866176786116L339.03556203935847 348.25866176786116Q350.5760090890317 348.25866176786116 357.0820329291159 342.3980768008011Q363.5880567692001 336.53749183374117 363.5880567692001 325.77157143169705L363.5880567692001 325.77157143169705L363.5880567692001 325.95229431614376ZM341.82385797082316 416.6751823084293Q355.22316897480613 416.6751823084293 363.1233407806227 409.9626180289774Q371.0235125864392 403.2758713044464 371.0235125864392 391.94196469414095L371.0235125864392 391.94196469414095Q371.0235125864392 377.4324988285562 362.55535457236135 368.52544238082186Q354.11301411320443 359.5925683781666 337.38323852441647 359.05039972482626L337.38323852441647 359.05039972482626Q336.066543223447 359.231122609273 333.84623350024367 359.231122609273L333.84623350024367 359.231122609273L312.46929802568127 359.231122609273L312.46929802568127 411.82148198328713Q324.9133594975883 416.85590519287615 341.82385797082316 416.85590519287615L341.82385797082316 416.85590519287615L341.82385797082316 416.6751823084293Z " fill="#4d331f" transform="matrix(0.7514706515485384,0,0,0.7514706515485383,0,33.05553819537684)"/><path d="M650.8010227897549 376.1740039343642L626.9365354605095 395.04098685819116Q621.5459689108447 396.12658706610983 614.0029191903068 396.12658706610983L614.0029191903068 396.12658706610983Q605.1122278323526 396.12658706610983 598.0371092359175 391.4847103150095Q590.9619906394823 386.8241163189451 586.975217462126 378.86928720919667Q583.0071615297338 370.9331753444123 583.0071615297338 361.34994592278593L583.0071615297338 361.34994592278593Q583.0071615297338 350.98059221266675 589.3335903276045 341.88401116010726Q595.6787363704391 332.7874301075479 605.168379567245 327.3219945780266Q614.6767400090148 321.8752762934693 623.567431366969 321.8752762934693L623.567431366969 321.8752762934693Q636.370026922423 321.8752762934693 643.4451455188581 331.9825885740909Q650.5202641152932 342.08990085471254 650.5202641152932 358.65466264795344L650.5202641152932 358.65466264795344L600.6575235308934 358.65466264795344Q601.4623650643503 370.1096165659913 606.9278005938716 377.3906248570316Q612.393236123393 384.671633148072 621.8267275853063 384.671633148072L621.8267275853063 384.671633148072Q630.5863982285118 384.671633148072 646.7580978775063 371.064196059161L646.7580978775063 371.064196059161L650.8010227897549 376.1740039343642ZM615.7623402169335 333.19920949675833Q601.2003236348528 333.19920949675833 600.5265028161446 353.13307538353985L600.5265028161446 353.13307538353985L632.0650605806768 353.13307538353985Q630.8484396580094 345.85206709249945 629.5756670004496 342.0150318748561Q628.2841770979257 338.17799665721265 625.1209626989905 335.68860307698554Q621.9577483000552 333.19920949675833 615.7623402169335 333.19920949675833L615.7623402169335 333.19920949675833ZM737.4431497286389 376.1740039343642L713.5973796443576 395.04098685819116Q708.2068130946927 396.12658706610983 700.6637633741548 396.12658706610983L700.6637633741548 396.12658706610983Q691.7543547712365 396.12658706610983 684.6792361748014 391.4847103150095Q677.6041175783663 386.8241163189451 673.6360616459741 378.86928720919667Q669.6680057135819 370.9331753444123 669.6680057135819 361.34994592278593L669.6680057135819 361.34994592278593Q669.6680057135819 350.98059221266675 675.9944345114525 341.88401116010726Q682.320863309323 332.7874301075479 691.829223751093 327.3219945780266Q701.3375841928629 321.8752762934693 710.2282755508171 321.8752762934693L710.2282755508171 321.8752762934693Q723.0308711062711 321.8752762934693 730.1059897027061 331.9825885740909Q737.1811082991413 342.08990085471254 737.1811082991413 358.65466264795344L737.1811082991413 358.65466264795344L687.3183677147415 358.65466264795344Q688.1232092481983 370.1096165659913 693.5886447777197 377.3906248570316Q699.0353630622768 384.671633148072 708.4688545241903 384.671633148072L708.4688545241903 384.671633148072Q717.2285251673957 384.671633148072 733.4002248163903 371.064196059161L733.4002248163903 371.064196059161L737.4431497286389 376.1740039343642ZM702.4044671558173 333.19920949675833Q687.8611678187008 333.19920949675833 687.1873469999927 353.13307538353985L687.1873469999927 353.13307538353985L718.7071875195608 353.13307538353985Q717.5092838418574 345.85206709249945 716.2177939393335 342.0150318748561Q714.9450212817738 338.17799665721265 711.7818068828385 335.68860307698554Q708.5998752389391 333.19920949675833 702.4044671558173 333.19920949675833L702.4044671558173 333.19920949675833ZM802.9347898580739 322.00629700821816Q807.389494159533 322.00629700821816 810.7585982530736 324.43953885355296Q814.1277023466141 326.85406345392374 816.0181440879896 331.1777470406341L816.0181440879896 331.1777470406341L807.1274527300355 342.3519422842101L801.9989276098682 342.3519422842101Q801.456127505909 338.9828381906696 800.0523341336003 337.57904481836107Q798.6298235163277 336.1565342010884 796.1965816709929 336.1565342010884L796.1965816709929 336.1565342010884Q793.2392569666629 336.1565342010884 789.9450218529788 337.7100655331098Q786.6320694943306 339.2635968651313 782.4581238673331 343.5685632068775L782.4581238673331 343.5685632068775L782.4581238673331 383.7357708998663L801.3251067911601 389.51939959377756L798.6298235163277 394.9099661434423L754.2886701963415 394.9099661434423L754.2886701963415 390.73602051644497L766.2864242183387 381.3025290545315L766.2864242183387 343.1567838176671L754.2886701963415 336.1565342010884L754.2886701963415 331.9825885740909L777.329598747166 320.6586553708019L781.5222616191274 337.24213440900695L795.5227608522847 322.94215925642385Q798.3677820868301 321.8752762934693 802.9347898580739 321.8752762934693L802.9347898580739 321.8752762934693L802.9347898580739 322.00629700821816ZM854.4259307543517 384.54061243332313L868.576167947222 389.3883788790287L865.8808846723895 394.7789454286936L824.9088354459439 394.7789454286936L824.9088354459439 390.6049998016961L837.580410286649 380.62870823582335L837.580410286649 298.96536845739377L823.5611938085276 294.248622726437L826.25647708336 288.85805617677215L867.2285263098057 288.85805617677215L867.2285263098057 293.0320018037696L854.4259307543517 303.0082933696424L854.4259307543517 384.54061243332313ZM930.960745412614 389.3883788790287L928.2654621377816 394.7789454286936L903.8768919495409 394.7789454286936L862.1000011896384 341.678121465502L903.4838298052945 305.57255592972604L887.8362130152952 294.248622726437L890.5314962901276 288.85805617677215L926.7867997856166 288.85805617677215L926.7867997856166 293.0320018037696L878.2717008386329 335.3516926676314L915.3318458675787 381.7143084437419L930.960745412614 389.3883788790287ZM980.4304238527674 389.3883788790287L977.735140577935 394.7789454286936L940.1321954450299 394.7789454286936L940.1321954450299 390.6049998016961L952.1299494670269 381.17150833978263L952.1299494670269 341.80914218025083L940.1321954450299 333.4612509262559L940.1321954450299 329.28730529925855L963.1731239958543 320.6586553708019L968.3016491160215 320.6586553708019L968.3016491160215 384.671633148072L980.4304238527674 389.3883788790287ZM959.6729991875649 280.2294062483156Q963.7159240998136 280.2294062483156 966.3363383947895 283.1867309526456Q968.9754699347296 286.1627729019398 968.9754699347296 290.5987599584348L968.9754699347296 290.5987599584348Q968.9754699347296 293.70582262247774 967.0850281933541 296.47597487716655Q965.1945864519786 299.22740988689134 962.3682824623974 300.8558101987693Q959.5419784728161 302.4654932656831 956.8466951979838 302.4654932656831L956.8466951979838 302.4654932656831Q952.8037702857351 302.4654932656831 950.1646387457951 299.50816856135305Q947.5442244508191 296.53212661205896 947.5442244508191 292.0961395555639L947.5442244508191 292.0961395555639Q947.5442244508191 288.989076891521 949.4346661921945 286.21892463683207Q951.32510793357 283.4674896271073 954.1514119231514 281.8390893152294Q956.9777159127326 280.2294062483156 959.6729991875649 280.2294062483156L959.6729991875649 280.2294062483156ZM1078.677242669402 389.51939959377756L1075.9819593945695 394.9099661434423L1050.3767682836615 394.9099661434423L1050.3767682836615 349.50192986050166Q1050.3767682836615 342.08990085471254 1048.0745471530754 339.11385890541834Q1045.7910432674535 336.1565342010884 1039.8576766138294 336.1565342010884L1039.8576766138294 336.1565342010884Q1035.4029723123704 336.1565342010884 1031.0231369907679 337.7662172680022Q1026.6433016691649 339.39461757988005 1020.7286522605049 343.98034259608806L1020.7286522605049 343.98034259608806L1020.7286522605049 384.8026538628208L1032.857426997251 389.51939959377756L1030.1621437224185 394.9099661434423L992.5591985895134 394.9099661434423L992.5591985895134 390.73602051644497L1004.5569526115104 381.3025290545315L1004.5569526115104 343.1567838176671L992.5591985895134 336.1565342010884L992.5591985895134 331.9825885740909L1015.6001271403377 320.6586553708019L1020.0548314417969 338.17799665721265L1039.1838557951214 322.94215925642385Q1042.0101597847026 321.8752762934693 1046.5958848009104 321.8752762934693L1046.5958848009104 321.8752762934693Q1055.7673348333265 321.8752762934693 1061.1579013829914 327.47173253773946Q1066.5484679326562 333.04947153704546 1066.5484679326562 342.6327009586718L1066.5484679326562 342.6327009586718L1066.5484679326562 384.671633148072L1078.677242669402 389.51939959377756ZM1164.3835073600803 332.5253886780502L1148.4738491405833 332.5253886780502Q1152.2547326233343 337.9159552277151 1152.2547326233343 344.6541634147962L1152.2547326233343 344.6541634147962Q1152.2547326233343 350.5688128234562 1148.8856285297938 356.29628978247507Q1145.5165244362533 362.02376674149394 1139.8451992121268 366.3474503282043Q1134.1925912329643 370.6524166699506 1127.4543830458833 372.8048998408237L1127.4543830458833 372.8048998408237Q1123.8232375228451 376.4547626088259 1123.8232375228451 380.4976875210745L1123.8232375228451 380.4976875210745Q1123.8232375228451 382.78119140669645 1127.3795140660268 384.7465021279284Q1130.9545078541728 386.69309560419634 1137.9734747157154 389.3883788790287L1137.9734747157154 389.3883788790287Q1147.5379868923776 393.1692623617798 1152.7226637474373 396.332476760715Q1157.9073406024968 399.49569115965033 1157.9073406024968 404.08141617585824L1157.9073406024968 404.08141617585824Q1157.9073406024968 408.12434108810686 1152.7226637474373 414.4507698859774Q1147.5379868923776 420.7959159288121 1139.8451992121268 425.51266165976887Q1132.1711287768399 430.2294073907256 1125.0211412005483 430.2294073907256L1125.0211412005483 430.2294073907256Q1117.4780914800103 430.2294073907256 1107.1648895047838 427.66514483064196Q1096.870404774521 425.1008822705583 1089.9824586277268 422.53661971047467L1089.9824586277268 422.53661971047467L1089.9824586277268 401.7791950452723L1095.1109837478941 401.7791950452723Q1102.6540334684323 411.0816657924369 1110.4778418634319 415.9294322381424Q1118.2829330134673 420.7959159288121 1128.1282038645913 420.7959159288121L1128.1282038645913 420.7959159288121Q1131.7593493876295 420.7959159288121 1134.7915430718158 419.298536331683Q1137.8237367560023 417.8198739795179 1139.5082888027728 415.5925218287884Q1141.1928408495428 413.3838869230229 1141.1928408495428 411.36242446689863L1141.1928408495428 411.36242446689863Q1141.1928408495428 407.7125616988964 1137.0188952225453 405.09214740392036Q1132.844949595548 402.4530158639803 1123.9542582375939 398.69084962619337L1123.9542582375939 398.69084962619337Q1115.456629023886 395.190724817904 1111.3575523767452 392.6264622578205Q1107.23975848464 390.06219969773684 1107.23975848464 386.69309560419634L1107.23975848464 386.69309560419634Q1107.23975848464 383.4550122254046 1111.5447248263863 380.0859081318641Q1115.8684084130969 376.71680403832346 1121.801775066721 374.1525414782399L1121.801775066721 374.1525414782399Q1119.6305746508835 374.56432086745036 1117.3470707652616 374.56432086745036L1117.3470707652616 374.56432086745036Q1110.1970831889703 374.56432086745036 1104.2824337803102 371.40110646851514Q1098.349067126686 368.2378920695798 1094.9050940532888 362.9783462346638Q1091.479838224856 357.71880039974775 1091.479838224856 351.52339231662603L1091.479838224856 351.52339231662603Q1091.479838224856 344.1113633108368 1096.5896461000593 337.24213440900695Q1101.7181712202264 330.354188262213 1109.860172779616 326.1240909003232Q1118.0208915839698 321.8752762934693 1126.5185207976774 321.8752762934693L1126.5185207976774 321.8752762934693Q1135.952012259591 321.8752762934693 1143.0832825909183 327.2658428431342L1143.0832825909183 327.2658428431342L1164.2524866453314 327.2658428431342L1164.3835073600803 332.5253886780502ZM1125.1708791602614 362.9783462346638Q1131.2352665286344 362.9783462346638 1134.3984809275696 359.9461525504773Q1137.5616953265048 356.9139588662908 1137.5616953265048 350.98059221266675L1137.5616953265048 350.98059221266675Q1137.5616953265048 342.8947423881694 1132.3770184714454 337.9159552277151Q1127.1923416163856 332.9184508222966 1118.6947124026779 332.9184508222966L1118.6947124026779 332.9184508222966Q1112.7613457490538 332.9184508222966 1109.5981313501184 335.8196237917343Q1106.4349169511831 338.72079676117204 1106.4349169511831 344.6541634147962L1106.4349169511831 344.6541634147962Q1106.4349169511831 352.87103395404216 1111.6195938062428 357.924690094353Q1116.8042706613023 362.9783462346638 1125.1708791602614 362.9783462346638L1125.1708791602614 362.9783462346638Z " fill="#4d331f" transform="matrix(0.7514706515485384,0,0,0.7514706515485383,0,33.05553819537684)"/></g></svg>